<svg xmlns="http://www.w3.org/2000/svg" viewBox="0 0 512 512">
  <defs>
    <linearGradient id="bg" x1="76" y1="36" x2="446" y2="476" gradientUnits="userSpaceOnUse">
      <stop offset="0" stop-color="#fbfaff"/>
      <stop offset="0.34" stop-color="#eee9ff"/>
      <stop offset="0.72" stop-color="#c9b9ff"/>
      <stop offset="1" stop-color="#9aa9ff"/>
    </linearGradient>
    <radialGradient id="haloA" cx="0" cy="0" r="1" gradientUnits="userSpaceOnUse" gradientTransform="translate(154 132) rotate(52) scale(186)">
      <stop stop-color="#ffffff" stop-opacity="0.9"/>
      <stop offset="0.58" stop-color="#ffffff" stop-opacity="0.22"/>
      <stop offset="1" stop-color="#ffffff" stop-opacity="0"/>
    </radialGradient>
    <radialGradient id="haloB" cx="0" cy="0" r="1" gradientUnits="userSpaceOnUse" gradientTransform="translate(374 392) rotate(58) scale(174)">
      <stop stop-color="#785cff" stop-opacity="0.42"/>
      <stop offset="1" stop-color="#785cff" stop-opacity="0"/>
    </radialGradient>
    <linearGradient id="glass" x1="132" y1="96" x2="380" y2="420" gradientUnits="userSpaceOnUse">
      <stop offset="0" stop-color="#ffffff" stop-opacity="0.96"/>
      <stop offset="0.5" stop-color="#ffffff" stop-opacity="0.76"/>
      <stop offset="1" stop-color="#f8f6ff" stop-opacity="0.88"/>
    </linearGradient>
    <linearGradient id="accent" x1="158" y1="150" x2="354" y2="358" gradientUnits="userSpaceOnUse">
      <stop offset="0" stop-color="#d8ccff"/>
      <stop offset="0.42" stop-color="#a58cff"/>
      <stop offset="1" stop-color="#68a9ff"/>
    </linearGradient>
    <linearGradient id="check" x1="170" y1="292" x2="226" y2="330" gradientUnits="userSpaceOnUse">
      <stop stop-color="#ffffff"/>
      <stop offset="1" stop-color="#eef4ff"/>
    </linearGradient>
    <filter id="softShadow" x="70" y="66" width="384" height="396" filterUnits="userSpaceOnUse" color-interpolation-filters="sRGB">
      <feDropShadow dx="0" dy="26" stdDeviation="30" flood-color="#5846c7" flood-opacity="0.24"/>
      <feDropShadow dx="0" dy="8" stdDeviation="12" flood-color="#1e2a5a" flood-opacity="0.12"/>
    </filter>
    <filter id="accentGlow" x="116" y="230" width="148" height="148" filterUnits="userSpaceOnUse" color-interpolation-filters="sRGB">
      <feDropShadow dx="0" dy="10" stdDeviation="14" flood-color="#8d74ff" flood-opacity="0.34"/>
    </filter>
  </defs>

  <rect width="512" height="512" rx="112" fill="url(#bg)"/>
  <rect width="512" height="512" rx="112" fill="url(#haloA)"/>
  <rect width="512" height="512" rx="112" fill="url(#haloB)"/>

  <path d="M126 88c54-34 119-40 184-17 70 25 112 83 122 150" fill="none" stroke="#ffffff" stroke-width="14" stroke-linecap="round" opacity="0.24"/>
  <path d="M84 370c54 58 128 82 210 66 51-10 96-34 132-71" fill="none" stroke="#ffffff" stroke-width="10" stroke-linecap="round" opacity="0.18"/>

  <g filter="url(#softShadow)">
    <rect x="112" y="96" width="288" height="320" rx="64" fill="url(#glass)" stroke="#ffffff" stroke-width="8"/>
  </g>

  <rect x="164" y="160" width="184" height="26" rx="13" fill="#101729"/>
  <rect x="164" y="210" width="138" height="18" rx="9" fill="#99a3b8"/>
  <rect x="164" y="246" width="104" height="16" rx="8" fill="#c4cad8"/>

  <g filter="url(#accentGlow)">
    <circle cx="184" cy="318" r="43" fill="url(#accent)"/>
    <path d="M162 317l18 18 43-51" fill="none" stroke="url(#check)" stroke-width="18" stroke-linecap="round" stroke-linejoin="round"/>
  </g>

  <rect x="246" y="296" width="106" height="20" rx="10" fill="#101729"/>
  <rect x="246" y="334" width="78" height="16" rx="8" fill="#99a3b8"/>

  <circle cx="354" cy="134" r="8" fill="#ffffff" opacity="0.82"/>
  <circle cx="384" cy="168" r="4" fill="#ffffff" opacity="0.74"/>
  <path d="M346 130h16M354 122v16" stroke="#8d74ff" stroke-width="4" stroke-linecap="round" opacity="0.46"/>
</svg>
